<?xml version="1.0" standalone="no"?>
<!DOCTYPE svg PUBLIC "-//W3C//DTD SVG 20010904//EN"
 "http://www.w3.org/TR/2001/REC-SVG-20010904/DTD/svg10.dtd">
<svg version="1.0" xmlns="http://www.w3.org/2000/svg"
 width="1280.000000pt" height="720.000000pt" viewBox="0 0 1280.000000 720.000000"
 preserveAspectRatio="xMidYMid meet">

<g transform="translate(0.000000,720.000000) scale(0.100000,-0.100000)"
fill="#000000" stroke="none">
<path d="M2605 6170 c-275 -72 -466 -231 -556 -465 -44 -112 -56 -229 -36
-348 34 -198 99 -321 266 -503 189 -205 204 -223 197 -239 -5 -13 -120 -15
-1001 -15 l-995 0 0 -440 0 -441 1243 3 1242 3 80 23 c237 65 422 227 509 446
46 114 59 196 53 331 -6 135 -23 208 -72 310 -45 94 -105 170 -284 362 -83 89
-151 168 -151 177 0 14 57 16 575 16 l575 0 2 -832 3 -833 438 -3 437 -2 0
835 0 835 535 0 535 0 0 400 0 400 -1762 -1 c-1682 0 -1766 -1 -1833 -19z"/>
<path d="M6581 6158 c-5 -18 -155 -512 -331 -1098 -177 -586 -339 -1121 -360
-1190 -27 -88 -35 -129 -28 -137 15 -19 881 -19 896 0 5 6 28 73 51 147 23 74
47 150 52 168 l11 32 421 -2 421 -3 56 -175 56 -175 434 -2 c239 -2 441 1 448
6 11 7 -38 177 -238 822 -139 448 -310 999 -380 1224 l-127 410 -686 3 -685 2
-11 -32z m824 -1057 c54 -175 95 -326 92 -335 -6 -14 -30 -16 -197 -16 -164 0
-191 2 -197 16 -6 16 186 654 197 654 4 0 51 -143 105 -319z"/>
<path d="M8882 4958 l3 -1233 485 0 485 0 5 348 5 347 265 -266 c168 -169 289
-282 332 -310 77 -51 211 -98 321 -113 50 -7 345 -11 808 -11 l729 0 0 440 0
440 -627 1 c-658 0 -681 2 -709 44 -17 25 -12 32 61 79 204 132 305 261 357
455 29 108 29 305 -1 414 -31 117 -92 226 -178 318 -124 131 -255 205 -450
255 l-96 24 -898 0 -899 0 2 -1232z m1595 507 c31 -19 46 -36 58 -70 29 -74 9
-139 -59 -189 -26 -20 -40 -21 -314 -21 l-287 0 -3 145 c-1 79 -1 149 1 155 3
7 96 9 283 7 275 -3 279 -3 321 -27z"/>
<path d="M480 3528 c0 -11 733 -2388 751 -2436 l9 -22 412 2 412 3 118 380
c65 209 130 418 144 464 14 47 29 80 34 75 5 -5 67 -205 139 -444 72 -239 135
-445 141 -457 l10 -23 414 0 415 0 11 38 c5 20 173 574 373 1230 200 655 361
1194 359 1197 -3 3 -213 5 -467 5 l-462 0 -96 -321 c-90 -302 -102 -339 -110
-328 -2 2 -48 148 -103 324 l-100 320 -511 3 c-481 2 -512 1 -517 -15 -3 -10
-44 -155 -90 -322 -80 -286 -91 -321 -99 -310 -2 2 -46 148 -98 324 l-94 320
-498 3 c-375 2 -497 -1 -497 -10z"/>
<path d="M4647 3532 c-3 -4 -145 -471 -317 -1037 -171 -567 -336 -1112 -367
-1213 -30 -100 -52 -189 -49 -197 5 -13 64 -15 453 -13 l447 3 51 160 c28 88
54 168 57 178 7 16 34 17 425 15 l418 -3 58 -178 58 -177 440 0 c370 0 440 2
445 14 3 8 -49 191 -116 408 -476 1538 -621 2006 -630 2026 l-10 22 -679 0
c-374 0 -682 -3 -684 -8z m814 -1092 c72 -230 95 -318 87 -327 -8 -10 -58 -13
-198 -13 -158 0 -189 2 -194 15 -3 8 28 122 68 253 41 130 86 278 101 327 16
50 30 83 33 75 3 -8 49 -157 103 -330z"/>
<path d="M6982 2308 l3 -1233 488 -3 487 -2 0 352 0 352 293 -291 c272 -270
297 -293 369 -327 42 -20 114 -46 160 -59 l83 -22 1035 0 c973 0 1040 1 1115
19 264 61 459 238 545 494 74 223 41 493 -84 680 -45 67 -108 140 -288 335
-54 57 -98 112 -98 121 0 15 53 16 615 16 l615 0 0 400 0 400 -817 0 c-914 0
-882 2 -1058 -72 -243 -103 -407 -309 -445 -562 -28 -184 36 -412 163 -581 24
-33 104 -123 176 -200 72 -77 130 -147 129 -155 -3 -13 -82 -15 -656 -18 -698
-2 -705 -2 -731 47 -9 16 -7 23 11 35 122 84 241 181 279 229 57 71 104 167
131 266 30 112 30 307 -1 415 -67 239 -247 431 -496 529 -172 68 -158 67
-1141 67 l-884 0 2 -1232z m1584 511 c47 -22 84 -82 84 -135 -1 -53 -35 -111
-79 -134 -39 -19 -54 -20 -318 -18 l-278 3 -3 153 -3 152 278 0 c259 0 279 -1
319 -21z"/>
</g>
</svg>
